<svg width="282" height="50" viewBox="0 0 282 50" fill="none" xmlns="http://www.w3.org/2000/svg">
<path d="M6.25 20.8333H43.75M14.5833 31.25H16.6667M25 31.25H27.0833M12.5 39.5833H37.5C40.9518 39.5833 43.75 36.7851 43.75 33.3333V16.6667C43.75 13.2149 40.9518 10.4167 37.5 10.4167H12.5C9.04822 10.4167 6.25 13.2149 6.25 16.6667V33.3333C6.25 36.7851 9.04822 39.5833 12.5 39.5833Z" stroke="#F1F5F9" stroke-width="2" stroke-linecap="round" stroke-linejoin="round"/>
<path d="M64.496 36.5V13.94H74.352C76.8267 13.94 78.736 14.5267 80.08 15.7C81.4453 16.8733 82.128 18.5053 82.128 20.596C82.128 21.9827 81.8187 23.1667 81.2 24.148C80.6027 25.1293 79.7387 25.8867 78.608 26.42C77.4773 26.932 76.144 27.188 74.608 27.188L75.056 26.58H76.144C77.04 26.58 77.84 26.8147 78.544 27.284C79.248 27.7533 79.824 28.468 80.272 29.428L83.568 36.5H79.024L75.696 29.172C75.3973 28.4253 74.9387 27.9347 74.32 27.7C73.7227 27.4653 72.9973 27.348 72.144 27.348H68.624V36.5H64.496ZM68.624 24.308H73.68C75.1307 24.308 76.2293 24.0093 76.976 23.412C77.744 22.7933 78.128 21.8973 78.128 20.724C78.128 19.5507 77.744 18.6653 76.976 18.068C76.2293 17.4707 75.1307 17.172 73.68 17.172H68.624V24.308ZM92.7285 36.82C91.3205 36.82 90.0832 36.4893 89.0165 35.828C87.9498 35.1453 87.1178 34.1747 86.5205 32.916C85.9232 31.6573 85.6245 30.1533 85.6245 28.404C85.6245 26.6547 85.9232 25.1613 86.5205 23.924C87.1178 22.6653 87.9498 21.7053 89.0165 21.044C90.0832 20.3613 91.3205 20.02 92.7285 20.02C94.0938 20.02 95.2885 20.3613 96.3125 21.044C97.3578 21.7053 98.0512 22.6013 98.3925 23.732H98.0405L98.3925 20.34H102.233C102.169 21.0013 102.105 21.6733 102.041 22.356C101.998 23.0387 101.977 23.7107 101.977 24.372V36.5H98.0085L97.9765 33.172H98.3605C98.0192 34.2813 97.3258 35.1667 96.2805 35.828C95.2352 36.4893 94.0512 36.82 92.7285 36.82ZM93.8485 33.748C95.1072 33.748 96.1205 33.3107 96.8885 32.436C97.6565 31.54 98.0405 30.196 98.0405 28.404C98.0405 26.612 97.6565 25.2787 96.8885 24.404C96.1205 23.5293 95.1072 23.092 93.8485 23.092C92.5898 23.092 91.5765 23.5293 90.8085 24.404C90.0405 25.2787 89.6565 26.612 89.6565 28.404C89.6565 30.196 90.0298 31.54 90.7765 32.436C91.5445 33.3107 92.5685 33.748 93.8485 33.748ZM106.3 36.5V24.468C106.3 23.7853 106.279 23.092 106.236 22.388C106.215 21.684 106.162 21.0013 106.076 20.34H109.948L110.396 24.756H109.756C109.97 23.6893 110.322 22.804 110.812 22.1C111.324 21.396 111.943 20.8733 112.668 20.532C113.394 20.1907 114.183 20.02 115.036 20.02C115.42 20.02 115.73 20.0413 115.964 20.084C116.199 20.1053 116.434 20.1587 116.668 20.244L116.636 23.764C116.231 23.5933 115.879 23.4867 115.58 23.444C115.303 23.4013 114.951 23.38 114.524 23.38C113.607 23.38 112.828 23.572 112.188 23.956C111.57 24.34 111.1 24.8733 110.78 25.556C110.482 26.2387 110.332 27.0173 110.332 27.892V36.5H106.3ZM125.941 36.82C124.277 36.82 122.837 36.4787 121.621 35.796C120.405 35.1133 119.455 34.1427 118.773 32.884C118.111 31.6253 117.781 30.132 117.781 28.404C117.781 26.676 118.111 25.1933 118.773 23.956C119.455 22.6973 120.405 21.7267 121.621 21.044C122.837 20.3613 124.277 20.02 125.941 20.02C127.605 20.02 129.045 20.3613 130.261 21.044C131.498 21.7267 132.447 22.6973 133.109 23.956C133.791 25.1933 134.133 26.676 134.133 28.404C134.133 30.132 133.791 31.6253 133.109 32.884C132.447 34.1427 131.498 35.1133 130.261 35.796C129.045 36.4787 127.605 36.82 125.941 36.82ZM125.941 33.748C127.199 33.748 128.202 33.3107 128.949 32.436C129.695 31.54 130.069 30.196 130.069 28.404C130.069 26.612 129.695 25.2787 128.949 24.404C128.202 23.5293 127.199 23.092 125.941 23.092C124.682 23.092 123.679 23.5293 122.933 24.404C122.186 25.2787 121.813 26.612 121.813 28.404C121.813 30.196 122.186 31.54 122.933 32.436C123.679 33.3107 124.682 33.748 125.941 33.748ZM146.684 36.5V13.94H161.564V17.172H150.812V23.572H160.828V26.804H150.812V36.5H146.684ZM164.676 36.5V20.34H168.676V36.5H164.676ZM164.452 17.3V13.396H168.9V17.3H164.452ZM173.02 36.5V24.372C173.02 23.7107 172.998 23.0387 172.956 22.356C172.913 21.6733 172.849 21.0013 172.764 20.34H176.636L176.956 23.54H176.572C177.084 22.4093 177.841 21.5453 178.844 20.948C179.846 20.3293 181.009 20.02 182.332 20.02C184.23 20.02 185.66 20.5533 186.62 21.62C187.58 22.6867 188.06 24.3507 188.06 26.612V36.5H184.06V26.804C184.06 25.5027 183.804 24.5747 183.292 24.02C182.801 23.444 182.054 23.156 181.052 23.156C179.814 23.156 178.833 23.54 178.108 24.308C177.382 25.076 177.02 26.1 177.02 27.38V36.5H173.02ZM198.541 36.82C197.133 36.82 195.896 36.4893 194.829 35.828C193.762 35.1453 192.93 34.1747 192.333 32.916C191.736 31.6573 191.437 30.1533 191.437 28.404C191.437 26.6547 191.736 25.1613 192.333 23.924C192.93 22.6653 193.762 21.7053 194.829 21.044C195.896 20.3613 197.133 20.02 198.541 20.02C199.906 20.02 201.101 20.3613 202.125 21.044C203.17 21.7053 203.864 22.6013 204.205 23.732H203.853L204.205 20.34H208.045C207.981 21.0013 207.917 21.6733 207.853 22.356C207.81 23.0387 207.789 23.7107 207.789 24.372V36.5H203.821L203.789 33.172H204.173C203.832 34.2813 203.138 35.1667 202.093 35.828C201.048 36.4893 199.864 36.82 198.541 36.82ZM199.661 33.748C200.92 33.748 201.933 33.3107 202.701 32.436C203.469 31.54 203.853 30.196 203.853 28.404C203.853 26.612 203.469 25.2787 202.701 24.404C201.933 23.5293 200.92 23.092 199.661 23.092C198.402 23.092 197.389 23.5293 196.621 24.404C195.853 25.2787 195.469 26.612 195.469 28.404C195.469 30.196 195.842 31.54 196.589 32.436C197.357 33.3107 198.381 33.748 199.661 33.748ZM212.145 36.5V24.372C212.145 23.7107 212.123 23.0387 212.081 22.356C212.038 21.6733 211.974 21.0013 211.889 20.34H215.761L216.081 23.54H215.697C216.209 22.4093 216.966 21.5453 217.969 20.948C218.971 20.3293 220.134 20.02 221.457 20.02C223.355 20.02 224.785 20.5533 225.745 21.62C226.705 22.6867 227.185 24.3507 227.185 26.612V36.5H223.185V26.804C223.185 25.5027 222.929 24.5747 222.417 24.02C221.926 23.444 221.179 23.156 220.177 23.156C218.939 23.156 217.958 23.54 217.233 24.308C216.507 25.076 216.145 26.1 216.145 27.38V36.5H212.145ZM238.85 36.82C237.186 36.82 235.725 36.4787 234.466 35.796C233.229 35.1133 232.269 34.1427 231.586 32.884C230.903 31.604 230.562 30.0893 230.562 28.34C230.562 26.5907 230.903 25.0973 231.586 23.86C232.29 22.6227 233.261 21.6733 234.498 21.012C235.735 20.3507 237.186 20.02 238.85 20.02C239.917 20.02 240.951 20.1907 241.954 20.532C242.978 20.852 243.81 21.3213 244.45 21.94L243.234 24.724C242.658 24.1907 242.007 23.796 241.282 23.54C240.578 23.2627 239.885 23.124 239.202 23.124C237.773 23.124 236.653 23.572 235.842 24.468C235.053 25.364 234.658 26.6653 234.658 28.372C234.658 30.0787 235.053 31.3907 235.842 32.308C236.653 33.2253 237.773 33.684 239.202 33.684C239.863 33.684 240.546 33.556 241.25 33.3C241.975 33.044 242.637 32.6493 243.234 32.116L244.45 34.868C243.789 35.4867 242.946 35.9667 241.922 36.308C240.919 36.6493 239.895 36.82 238.85 36.82ZM238.658 42.74C238.018 42.74 237.41 42.676 236.834 42.548C236.279 42.4413 235.789 42.2813 235.362 42.068L235.938 40.276C236.322 40.4467 236.706 40.5747 237.09 40.66C237.474 40.7667 237.879 40.82 238.306 40.82C238.882 40.82 239.319 40.7347 239.618 40.564C239.917 40.4147 240.066 40.18 240.066 39.86C240.066 39.3693 239.671 39.124 238.882 39.124C238.669 39.124 238.455 39.1347 238.242 39.156C238.05 39.1773 237.815 39.2307 237.538 39.316L236.93 38.74L237.378 35.86H239.522L239.106 38.292L238.082 37.94C238.317 37.8547 238.562 37.7907 238.818 37.748C239.095 37.7053 239.341 37.684 239.554 37.684C240.429 37.684 241.133 37.8867 241.666 38.292C242.199 38.6973 242.466 39.2627 242.466 39.988C242.466 40.82 242.114 41.4813 241.41 41.972C240.706 42.484 239.789 42.74 238.658 42.74ZM253.697 36.82C252.289 36.82 251.052 36.4893 249.985 35.828C248.919 35.1453 248.087 34.1747 247.489 32.916C246.892 31.6573 246.593 30.1533 246.593 28.404C246.593 26.6547 246.892 25.1613 247.489 23.924C248.087 22.6653 248.919 21.7053 249.985 21.044C251.052 20.3613 252.289 20.02 253.697 20.02C255.063 20.02 256.257 20.3613 257.281 21.044C258.327 21.7053 259.02 22.6013 259.361 23.732H259.009L259.361 20.34H263.201C263.137 21.0013 263.073 21.6733 263.009 22.356C262.967 23.0387 262.945 23.7107 262.945 24.372V36.5H258.977L258.945 33.172H259.329C258.988 34.2813 258.295 35.1667 257.249 35.828C256.204 36.4893 255.02 36.82 253.697 36.82ZM254.817 33.748C256.076 33.748 257.089 33.3107 257.857 32.436C258.625 31.54 259.009 30.196 259.009 28.404C259.009 26.612 258.625 25.2787 257.857 24.404C257.089 23.5293 256.076 23.092 254.817 23.092C253.559 23.092 252.545 23.5293 251.777 24.404C251.009 25.2787 250.625 26.612 250.625 28.404C250.625 30.196 250.999 31.54 251.745 32.436C252.513 33.3107 253.537 33.748 254.817 33.748ZM273.061 36.82C271.674 36.82 270.394 36.66 269.221 36.34C268.069 35.9987 267.098 35.5293 266.309 34.932L267.429 32.244C268.24 32.7987 269.136 33.2253 270.117 33.524C271.098 33.8227 272.09 33.972 273.093 33.972C274.16 33.972 274.949 33.7907 275.461 33.428C275.994 33.0653 276.261 32.5747 276.261 31.956C276.261 31.4653 276.09 31.0813 275.749 30.804C275.429 30.5053 274.906 30.2813 274.181 30.132L270.981 29.524C269.616 29.2253 268.57 28.7133 267.845 27.988C267.141 27.2627 266.789 26.3133 266.789 25.14C266.789 24.1373 267.056 23.252 267.589 22.484C268.144 21.716 268.922 21.1187 269.925 20.692C270.949 20.244 272.144 20.02 273.509 20.02C274.704 20.02 275.824 20.18 276.869 20.5C277.936 20.82 278.832 21.3 279.557 21.94L278.405 24.532C277.744 23.9987 276.986 23.5827 276.133 23.284C275.28 22.9853 274.448 22.836 273.637 22.836C272.528 22.836 271.717 23.0387 271.205 23.444C270.693 23.828 270.437 24.3293 270.437 24.948C270.437 25.4173 270.586 25.812 270.885 26.132C271.205 26.4307 271.696 26.6547 272.357 26.804L275.557 27.412C276.986 27.6893 278.064 28.18 278.789 28.884C279.536 29.5667 279.909 30.5053 279.909 31.7C279.909 32.7667 279.621 33.684 279.045 34.452C278.469 35.22 277.669 35.8067 276.645 36.212C275.621 36.6173 274.426 36.82 273.061 36.82Z" fill="#EFF6FF"/>
</svg>
